<svg id="visual" viewBox="0 0 960 540" width="960" height="540" xmlns="http://www.w3.org/2000/svg" xmlns:xlink="http://www.w3.org/1999/xlink" version="1.1"><path d="M612 540L603.7 527.2C595.3 514.3 578.7 488.7 565 463C551.3 437.3 540.7 411.7 554.7 386C568.7 360.3 607.3 334.7 607.5 308.8C607.7 283 569.3 257 556.3 231.2C543.3 205.3 555.7 179.7 548.5 154C541.3 128.3 514.7 102.7 511.7 77C508.7 51.3 529.3 25.7 539.7 12.8L550 0L960 0L960 12.8C960 25.7 960 51.3 960 77C960 102.7 960 128.3 960 154C960 179.7 960 205.3 960 231.2C960 257 960 283 960 308.8C960 334.7 960 360.3 960 386C960 411.7 960 437.3 960 463C960 488.7 960 514.3 960 527.2L960 540Z" fill="#061438"></path><path d="M669 540L655.2 527.2C641.3 514.3 613.7 488.7 619.7 463C625.7 437.3 665.3 411.7 672.5 386C679.7 360.3 654.3 334.7 634 308.8C613.7 283 598.3 257 609.5 231.2C620.7 205.3 658.3 179.7 653.5 154C648.7 128.3 601.3 102.7 588.8 77C576.3 51.3 598.7 25.7 609.8 12.8L621 0L960 0L960 12.8C960 25.7 960 51.3 960 77C960 102.7 960 128.3 960 154C960 179.7 960 205.3 960 231.2C960 257 960 283 960 308.8C960 334.7 960 360.3 960 386C960 411.7 960 437.3 960 463C960 488.7 960 514.3 960 527.2L960 540Z" fill="#152c63"></path><path d="M652 540L675.5 527.2C699 514.3 746 488.7 754.3 463C762.7 437.3 732.3 411.7 708.7 386C685 360.3 668 334.7 676.7 308.8C685.3 283 719.7 257 740.7 231.2C761.7 205.3 769.3 179.7 751.8 154C734.3 128.3 691.7 102.7 685 77C678.3 51.3 707.7 25.7 722.3 12.8L737 0L960 0L960 12.8C960 25.7 960 51.3 960 77C960 102.7 960 128.3 960 154C960 179.7 960 205.3 960 231.2C960 257 960 283 960 308.8C960 334.7 960 360.3 960 386C960 411.7 960 437.3 960 463C960 488.7 960 514.3 960 527.2L960 540Z" fill="#244791"></path><path d="M727 540L740 527.2C753 514.3 779 488.7 786 463C793 437.3 781 411.7 783.3 386C785.7 360.3 802.3 334.7 814.3 308.8C826.3 283 833.7 257 823.5 231.2C813.3 205.3 785.7 179.7 783.5 154C781.3 128.3 804.7 102.7 817.8 77C831 51.3 834 25.7 835.5 12.8L837 0L960 0L960 12.8C960 25.7 960 51.3 960 77C960 102.7 960 128.3 960 154C960 179.7 960 205.3 960 231.2C960 257 960 283 960 308.8C960 334.7 960 360.3 960 386C960 411.7 960 437.3 960 463C960 488.7 960 514.3 960 527.2L960 540Z" fill="#3164c2"></path><path d="M836 540L835 527.2C834 514.3 832 488.7 835.5 463C839 437.3 848 411.7 846.8 386C845.7 360.3 834.3 334.7 828.7 308.8C823 283 823 257 832 231.2C841 205.3 859 179.7 871.5 154C884 128.3 891 102.7 886.3 77C881.7 51.3 865.3 25.7 857.2 12.8L849 0L960 0L960 12.8C960 25.7 960 51.3 960 77C960 102.7 960 128.3 960 154C960 179.7 960 205.3 960 231.2C960 257 960 283 960 308.8C960 334.7 960 360.3 960 386C960 411.7 960 437.3 960 463C960 488.7 960 514.3 960 527.2L960 540Z" fill="#3b82f6"></path></svg>